Coordinates
version=1
nRows=27
nColumns=12
inDegrees=yes

Units are S.I. units (second, meters, Newtons, ...)
Angles are in degrees

endheader
time	SC_y	SC_z	SC_x	AC_y	AC_z	AC_x	GH_y	GH_z	GH_yy	EL_x	PS_y
       0.0              -42.95          21.91          38.61          34.77         -2.692          14.75          29.72          64.11          107.2          103.6          114.3
    0.0296              -42.94          21.91          38.61          34.77          -2.69          14.75          29.74           64.1          107.3          103.6          114.3
   0.05921              -42.94           21.9          38.61          34.77         -2.688          14.75          29.77          64.09          107.3          103.6          114.3
   0.08881              -42.94           21.9           38.6          34.77         -2.686          14.74          29.79          64.09          107.3          103.6          114.3
    0.1184              -42.93           21.9           38.6          34.77         -2.684          14.74          29.81          64.08          107.3          103.6          114.3
     0.148              -42.93          21.89           38.6          34.77         -2.682          14.74          29.84          64.07          107.3          103.6          114.3
    0.1776              -42.92          21.89          38.59          34.78         -2.679          14.74          29.87          64.06          107.3          103.6          114.2
    0.2072              -42.92          21.88          38.59          34.78         -2.677          14.74           29.9          64.04          107.3          103.5          114.2
    0.2368              -42.91          21.87          38.58          34.78         -2.674          14.74          29.93          64.03          107.3          103.5          114.2
    0.2664              -42.91          21.87          38.58          34.78         -2.671          14.73          29.96          64.02          107.3          103.5          114.2
     0.296               -42.9          21.86          38.57          34.78         -2.667          14.73           30.0          64.01          107.3          103.5          114.2
    0.3256              -42.89          21.85          38.57          34.79         -2.664          14.73          30.04          63.99          107.4          103.5          114.2
    0.3552              -42.89          21.84          38.56          34.79          -2.66          14.72          30.08          63.98          107.4          103.5          114.2
    0.3848              -42.88          21.83          38.56          34.79         -2.656          14.72          30.13          63.96          107.4          103.5          114.2
    0.4144              -42.87          21.83          38.55          34.79         -2.651          14.72          30.18          63.94          107.4          103.5          114.2
     0.444              -42.86          21.81          38.54           34.8         -2.646          14.71          30.23          63.92          107.4          103.5          114.1
    0.4737              -42.85           21.8          38.53           34.8         -2.641          14.71          30.29           63.9          107.4          103.5          114.1
    0.5033              -42.84          21.79          38.52           34.8         -2.635          14.71          30.35          63.87          107.5          103.5          114.1
    0.5329              -42.83          21.78          38.51          34.81         -2.629           14.7          30.42          63.85          107.5          103.5          114.1
    0.5625              -42.82          21.76           38.5          34.81         -2.622           14.7           30.5          63.82          107.5          103.4          114.1
    0.5921              -42.81          21.75          38.49          34.82         -2.614          14.69          30.58          63.79          107.6          103.4          114.0
    0.6217              -42.79          21.73          38.48          34.82         -2.606          14.69          30.68          63.75          107.6          103.4          114.0
    0.6513              -42.77          21.71          38.46          34.83         -2.596          14.68          30.78          63.71          107.6          103.4          114.0
    0.6809              -42.76          21.69          38.45          34.84         -2.586          14.67          30.89          63.67          107.7          103.4          114.0
    0.7105              -42.74          21.66          38.43          34.84         -2.575          14.66          31.02          63.62          107.7          103.3          113.9
    0.7401              -42.71          21.64          38.41          34.85         -2.562          14.65          31.16          63.57          107.8          103.3          113.9
    0.7697              -42.69          21.61          38.39          34.86         -2.548          14.64          31.31          63.51          107.8          103.3          113.8
